# xmcd CD database file
#
# Track frame offsets:
#	150
#	22580
#	51807
#	71336
#	94626
#	126637
#	145721
#	168357
#	198422
#	214763
#	242879
#	267335
#	311181
#
# Disc length: 4653 seconds
#
# Revision: 0
# Processed by: cddbd v1.5.1PL0 Copyright (c) Steve Scherf et al.
# Submitted via: CDex 1.50beta10
#
DISCID=b9122b0d
DTITLE=Cachao - Cuba Linda
DYEAR=2000
DGENRE=Jazz
TTITLE0=Goza Mi Mambo Cubano
TTITLE1=A Francisquita Le Gusta El Cusubé
TTITLE2=Redencion
TTITLE3=Prisionero De Amor
TTITLE4=Guajira De Mi Corazon
TTITLE5=Why?Why Not!
TTITLE6=Los Tres Ases
TTITLE7=Otan Efò
TTITLE8=Emboba
TTITLE9=La danza/Bailalo Si Puedes
TTITLE10=Rapsody In Blue
TTITLE11=Cuba Linda
TTITLE12=Yenyere Guma
EXTD=YEAR: 2000
EXTT0=
EXTT1=
EXTT2=
EXTT3=
EXTT4=
EXTT5=
EXTT6=
EXTT7=
EXTT8=
EXTT9=
EXTT10=
EXTT11=
EXTT12=
PLAYORDER=
